<?xml version="1.0" encoding="UTF-8" standalone="no"?>
<svg width="32px" height="32px" viewBox="0 0 32 32" version="1.1" xmlns="http://www.w3.org/2000/svg" xmlns:xlink="http://www.w3.org/1999/xlink" xmlns:sketch="http://www.bohemiancoding.com/sketch/ns">
    <!-- Generator: Sketch 3.3.3 (12072) - http://www.bohemiancoding.com/sketch -->
    <title>icon-send2card</title>
    <desc>Created with Sketch.</desc>
    <defs></defs>
    <g id="-_Shared-Symbols" stroke="none" stroke-width="1" fill="none" fill-rule="evenodd" sketch:type="MSPage">
        <g id="Icons" sketch:type="MSArtboardGroup" transform="translate(-168.000000, -40.000000)">
            <g id="btn-s2c" sketch:type="MSLayerGroup" transform="translate(160.000000, 40.000000)">
                <g id="icon-send2card" transform="translate(8.000000, 0.000000)" sketch:type="MSShapeGroup">
                    <path d="M19.9664017,7.55799376 L17.0212029,10.4776191 L17.0212029,1.72833299 C17.0212029,1.15506348 16.5555546,0.691546306 15.9833507,0.691546306 C15.4100812,0.691546306 14.946564,1.15506348 14.946564,1.72833299 L14.946564,10.4776191 L11.9992341,7.55799376 C11.5921915,7.15414776 10.9358085,7.15734443 10.5330281,7.5643871 C10.1302477,7.97142976 10.1334443,8.6278127 10.5415525,9.03059313 L15.2491821,13.6956004 C15.4516379,13.8959251 15.7158959,13.9960874 15.9790884,13.9960874 C16.251871,13.9960874 16.5150635,13.8959251 16.7185848,13.6956004 L21.4262144,9.03059313 C21.8321915,8.6278127 21.8353881,7.97142976 21.4326077,7.5643871 C21.0298273,7.15734443 20.3734443,7.15414776 19.9664017,7.55799376 Z" id="Fill-1" fill="#CC0000"></path>
                    <path d="M28.2521707,10.3668012 L22.8945515,10.3668012 L22.8945515,12.26882 L28.2521707,12.26882 C29.2516629,12.26882 30.0668137,13.0829053 30.0668137,14.0823975 L30.0668137,28.2521707 C30.0668137,29.2527284 29.2516629,30.0657482 28.2521707,30.0657482 L3.7145307,30.0657482 C2.71397294,30.0657482 1.90095317,29.2527284 1.90095317,28.2521707 L1.90095317,14.0823975 C1.90095317,13.0829053 2.71397294,12.26882 3.7145307,12.26882 L9.07214984,12.26882 L9.07214984,10.3668012 L3.7145307,10.3668012 C1.66546514,10.3668012 0,12.0343975 0,14.0823975 L0,28.2521707 C0,30.3001707 1.66546514,31.9667014 3.7145307,31.9667014 L28.2521707,31.9667014 C30.3012362,31.9667014 31.9656358,30.3001707 31.9656358,28.2521707 L31.9656358,14.0823975 C31.9656358,12.0343975 30.3012362,10.3668012 28.2521707,10.3668012" id="Fill-2" fill="#1E1E1E"></path>
                    <path d="M24.8914048,16.5012112 L25.7896691,16.5012112 L25.7896691,25.8322914 L24.8914048,25.8322914 L24.8914048,16.5012112 Z" id="Fill-3" fill="#1E1E1E"></path>
                    <path d="M21.0372862,16.5012112 L23.8024058,16.5012112 L23.8024058,25.8322914 L21.0372862,25.8322914 L21.0372862,16.5012112 Z" id="Fill-4" fill="#1E1E1E"></path>
                    <path d="M19.3100187,16.5012112 L20.3468054,16.5012112 L20.3468054,25.8322914 L19.3100187,25.8322914 L19.3100187,16.5012112 Z" id="Fill-5" fill="#1E1E1E"></path>
                    <path d="M16.9775151,16.5012112 L17.4953757,16.5012112 L17.4953757,25.8322914 L16.9775151,25.8322914 L16.9775151,16.5012112 Z" id="Fill-6" fill="#1E1E1E"></path>
                    <path d="M13.434539,16.5012112 L15.5081124,16.5012112 L15.5081124,25.8322914 L13.434539,25.8322914 L13.434539,16.5012112 Z" id="Fill-7" fill="#1E1E1E"></path>
                    <path d="M11.2746556,16.5012112 L12.4840624,16.5012112 L12.4840624,25.8322914 L11.2746556,25.8322914 L11.2746556,16.5012112 Z" id="Fill-8" fill="#1E1E1E"></path>
                    <path d="M7.90536524,16.5012112 L10.324179,16.5012112 L10.324179,25.8322914 L7.90536524,25.8322914 L7.90536524,16.5012112 Z" id="Fill-9" fill="#1E1E1E"></path>
                    <path d="M6.17703226,16.5012112 L7.04119875,16.5012112 L7.04119875,25.8322914 L6.17703226,25.8322914 L6.17703226,16.5012112 Z" id="Fill-10" fill="#1E1E1E"></path>
                </g>
            </g>
        </g>
    </g>
</svg>