<?xml version="1.0" encoding="UTF-8" standalone="no"?>
<svg width="12px" height="12px" viewBox="0 0 12 12" version="1.1" xmlns="http://www.w3.org/2000/svg" xmlns:xlink="http://www.w3.org/1999/xlink" xmlns:sketch="http://www.bohemiancoding.com/sketch/ns">
    <!-- Generator: Sketch 3.3.3 (12072) - http://www.bohemiancoding.com/sketch -->
    <title>icon-print</title>
    <desc>Created with Sketch.</desc>
    <defs></defs>
    <g id="-_Shared-Symbols" stroke="none" stroke-width="1" fill="none" fill-rule="evenodd" sketch:type="MSPage">
        <g id="Icons" sketch:type="MSArtboardGroup" transform="translate(-264.000000, -276.000000)" fill="#1E1E1E">
            <g id="icon-print" sketch:type="MSLayerGroup" transform="translate(264.000000, 276.000000)">
                <path d="M8.356,11.4571429 L3.09657143,11.4497143 L3.10114286,8.10114286 L2.62228571,8.10114286 L2.61771429,11.688 C2.61771429,11.7508571 2.64285714,11.8125714 2.68742857,11.8571429 C2.73257143,11.9022857 2.79314286,11.9268571 2.85714286,11.9268571 L8.59428571,11.9365714 C8.72628571,11.9365714 8.83428571,11.8297143 8.83428571,11.6977143 L8.83885714,8.10114286 L8.36057143,8.10114286 L8.356,11.4571429" id="Fill-1" sketch:type="MSShapeGroup"></path>
                <path d="M10.456,1.50285714 L8.84342857,1.50285714 L8.844,1.28914286 C8.844,1.22742857 8.81942857,1.16685714 8.776,1.12114286 L8.14971429,0.473714286 C8.10457143,0.426857143 8.04228571,0.401142857 7.97828571,0.401142857 L2.87028571,0.393142857 C2.73828571,0.393142857 2.632,0.499428571 2.63085714,0.630857143 L2.62628571,1.50285714 L1.00857143,1.50285714 C0.462285714,1.50285714 0.0177142857,1.94742857 0.0177142857,2.49314286 L0.0177142857,6.64342857 C0.0177142857,7.18857143 0.462285714,7.63314286 1.00857143,7.63314286 L10.456,7.63314286 C11.0028571,7.63314286 11.4462857,7.18857143 11.4462857,6.64342857 L11.4462857,2.49314286 C11.4462857,1.94742857 11.0028571,1.50285714 10.456,1.50285714 L10.456,1.50285714 Z M3.10742857,0.871428571 L7.87657143,0.879428571 L8.364,1.38457143 L8.356,2.93714286 L3.09714286,2.92914286 L3.10742857,0.871428571 L3.10742857,0.871428571 Z" id="Fill-2" sketch:type="MSShapeGroup"></path>
                <path d="M4.02628571,10.7462857 L7.444,10.7462857 C7.532,10.7462857 7.60342857,10.6731429 7.60342857,10.5851429 C7.60342857,10.4971429 7.532,10.4262857 7.444,10.4262857 L4.02628571,10.4262857 C3.93771429,10.4262857 3.86571429,10.4971429 3.86571429,10.5851429 C3.86571429,10.6731429 3.93771429,10.7462857 4.02628571,10.7462857" id="Fill-3" sketch:type="MSShapeGroup"></path>
                <path d="M4.02628571,9.78857143 L7.444,9.78857143 C7.532,9.78857143 7.60342857,9.71657143 7.60342857,9.62857143 C7.60342857,9.54 7.532,9.47028571 7.444,9.47028571 L4.02628571,9.47028571 C3.93771429,9.47028571 3.86571429,9.54 3.86571429,9.62857143 C3.86571429,9.71657143 3.93771429,9.78857143 4.02628571,9.78857143" id="Fill-4" sketch:type="MSShapeGroup"></path>
                <path d="M4.02628571,8.83142857 L7.444,8.83142857 C7.532,8.83142857 7.60342857,8.76 7.60342857,8.67257143 C7.60342857,8.584 7.532,8.512 7.444,8.512 L4.02628571,8.512 C3.93771429,8.512 3.86571429,8.584 3.86571429,8.67257143 C3.86571429,8.76 3.93771429,8.83142857 4.02628571,8.83142857" id="Fill-5" sketch:type="MSShapeGroup"></path>
                <path d="M4.32514286,5.25085714 L7.28457143,5.25085714 L7.28457143,6.32171429 L4.32514286,6.32171429 L4.32514286,5.25085714 Z" id="Fill-6" sketch:type="MSShapeGroup"></path>
                <path d="M9.73942857,5.87771429 C9.64,5.87771429 9.55828571,5.95942857 9.55828571,6.05942857 C9.55828571,6.15885714 9.64,6.24114286 9.73942857,6.24114286 C9.84057143,6.24114286 9.92171429,6.15885714 9.92171429,6.05942857 C9.92171429,5.95942857 9.84057143,5.87771429 9.73942857,5.87771429" id="Fill-7" sketch:type="MSShapeGroup"></path>
            </g>
        </g>
    </g>
</svg>