<?xml version="1.0" encoding="UTF-8" standalone="no"?>
<svg width="16px" height="16px" viewBox="0 0 16 16" version="1.1" xmlns="http://www.w3.org/2000/svg" xmlns:xlink="http://www.w3.org/1999/xlink" xmlns:sketch="http://www.bohemiancoding.com/sketch/ns">
    <!-- Generator: Sketch 3.3.3 (12072) - http://www.bohemiancoding.com/sketch -->
    <title>icon-expiring__soon</title>
    <desc>Created with Sketch.</desc>
    <defs></defs>
    <g id="-_Shared-Symbols" stroke="none" stroke-width="1" fill="none" fill-rule="evenodd" sketch:type="MSPage">
        <g id="Icons" sketch:type="MSArtboardGroup" transform="translate(-40.000000, -70.000000)" fill="#CC0000">
            <path d="M48.0172216,70.0000324 C52.4390888,70.0115871 56.0112464,73.606854 55.998803,78.02961 C55.9854707,82.5021398 52.2719911,86.1196271 47.7701303,85.9969703 C43.5446918,85.881424 39.9796447,82.3981481 40.0000875,77.9478388 C40.0214191,73.557969 43.6193525,69.987589 48.0172216,70.0000324 L48.0172216,70.0000324 Z M48.999365,76.5123985 C48.999365,75.6795764 49.0011426,74.8476432 48.999365,74.0148212 C48.9966985,73.4504221 48.5585115,73.0051245 48.0065558,72.9989028 C47.4537113,72.9944587 47.0048584,73.445978 47.0004143,74.0165988 C46.9968591,74.317908 47.0004143,74.6192171 47.0004143,74.9214151 C47.0004143,76.2741954 46.9986367,77.6278644 47.0004143,78.9797559 C47.0013031,79.4481627 47.2910577,79.8374648 47.7239118,79.9618993 C48.3620828,80.1458845 48.9922544,79.6730336 48.9966985,78.993977 C49.0046979,78.1664879 48.999365,77.3389988 48.999365,76.5123985 L48.999365,76.5123985 Z M48.0030005,82.9972111 C48.5567338,82.9954335 49.0020314,82.5465806 48.999365,81.9919585 C48.9958097,81.4497798 48.546068,81.0018158 48.0030005,80.9982605 C47.4554889,80.9955941 46.9995255,81.4506686 46.9995255,81.9999579 C47.0013031,82.55458 47.4474895,82.9981 48.0030005,82.9972111 L48.0030005,82.9972111 Z" id="icon-expiring__soon" sketch:type="MSShapeGroup"></path>
        </g>
    </g>
</svg>